<?xml version="1.0" standalone="no"?><!DOCTYPE svg PUBLIC "-//W3C//DTD SVG 1.1//EN" "http://www.w3.org/Graphics/SVG/1.1/DTD/svg11.dtd"><svg t="1641292088969" class="icon" viewBox="0 0 1024 1024" version="1.1" xmlns="http://www.w3.org/2000/svg" p-id="888" xmlns:xlink="http://www.w3.org/1999/xlink" width="200" height="200"><defs><style type="text/css"></style></defs><path d="M565.248 853.33333333a50.51733333 50.51733333 0 0 0 0-68.26666666l-273.06666666-273.06666667 273.06666666-273.06666667a50.51733333 50.51733333 0 1 0-68.26666667-68.26666666l-307.88266666 307.88266666A53.93066667 53.93066667 0 0 0 170.66666666 512a50.51733333 50.51733333 0 0 0 15.01866667 35.49866667L493.568 853.33333333a50.51733333 50.51733333 0 0 0 71.68 0z" p-id="889"></path><path d="M838.31466667 853.33333333a50.51733333 50.51733333 0 0 0 0-68.26666666l-273.06666668-273.06666667 273.06666668-273.06666667a50.51733333 50.51733333 0 1 0-68.26666667-68.26666666l-311.29599999 305.152A53.93066667 53.93066667 0 0 0 443.73333335 512a50.51733333 50.51733333 0 0 0 15.01866665 35.49866667L766.63466667 853.33333333a50.51733333 50.51733333 0 0 0 71.68 0z" p-id="890"></path></svg>