<?xml version="1.0" standalone="no"?><!DOCTYPE svg PUBLIC "-//W3C//DTD SVG 1.1//EN" "http://www.w3.org/Graphics/SVG/1.1/DTD/svg11.dtd"><svg t="1641291977126" class="icon" viewBox="0 0 1024 1024" version="1.1" xmlns="http://www.w3.org/2000/svg" p-id="1184" xmlns:xlink="http://www.w3.org/1999/xlink" width="200" height="200"><defs><style type="text/css"></style></defs><path d="M458.752 170.66666667a50.51733333 50.51733333 0 0 0 0 68.26666666l273.06666667 273.06666667-273.06666667 273.06666667a50.51733333 50.51733333 0 1 0 68.26666667 68.26666666l307.88266666-307.88266666A53.93066667 53.93066667 0 0 0 853.33333334 512a50.51733333 50.51733333 0 0 0-15.01866667-35.49866667L530.432 170.66666667a50.51733333 50.51733333 0 0 0-71.68 0z" p-id="1185"></path><path d="M185.68533333 170.66666667a50.51733333 50.51733333 0 0 0 0 68.26666666l273.06666667 273.06666667-273.06666667 273.06666667a50.51733333 50.51733333 0 1 0 68.26666667 68.26666666l311.296-305.152A53.93066667 53.93066667 0 0 0 580.26666666 512a50.51733333 50.51733333 0 0 0-15.01866666-35.49866667L257.36533333 170.66666667a50.51733333 50.51733333 0 0 0-71.68 0z" p-id="1186"></path></svg>