<?xml version="1.0" standalone="no"?><!DOCTYPE svg PUBLIC "-//W3C//DTD SVG 1.1//EN" "http://www.w3.org/Graphics/SVG/1.1/DTD/svg11.dtd"><svg t="1641117844874" class="icon" viewBox="0 0 1024 1024" version="1.1" xmlns="http://www.w3.org/2000/svg" p-id="1255" xmlns:xlink="http://www.w3.org/1999/xlink" width="200" height="200"><defs><style type="text/css"></style></defs><path d="M825.54543023 553.85350596l-365.62499298-365.62499297A46.57031191 46.57031191 0 0 0 426.77395319 174.49999824H361.23684527a317.90624414 317.90624414 0 0 1 2.18554716 37.49999853c0 37.54101445-6.38671904 73.12499824-17.99414033 100.19531075-4.52343779 10.546875-9.44531191 18.93749941-14.484375 25.55859375A74.95898291 74.95898291 0 1 1 288.4223936 324.49999502c5.2734375 0 14.56640596-8.47265625 22.54101505-27.07617129C320.46731461 275.24022998 325.92239303 244.10351182 325.92239303 211.99999677a276.64452598 276.64452598 0 0 0-2.52539034-37.49999852H253.44778454c2.47851563-18.04687471 6.72656221-34.59960879 12.43359403-47.92382755C273.85598765 107.97265566 283.1489561 99.49999942 288.4223936 99.49999942s14.56640596 8.47265625 22.54101505 27.07617128c5.70703097 13.32421875 9.96093721 29.88281162 12.43359404 47.92382754h37.83984258c-2.78320342-23.34374912-8.16210879-44.86523379-15.8203125-62.69531133C326.85989243 68.44531221 301.7407527 62 288.4223936 62s-38.43749883 6.44531221-57.00585849 49.80468692c-7.61718691 17.83007753-13.02539063 39.35156133-15.82031162 62.69531132H110.29739684a46.92773319 46.92773319 0 0 0-46.87499884 46.87499883v316.47655635a46.57031191 46.57031191 0 0 0 13.72851564 33.1464832l365.62499296 365.62499297a46.87499883 46.87499883 0 0 0 66.29296728 0l316.47655635-316.47655635a46.93359287 46.93359287 0 0 0-1e-8-66.29296728zM588.42238805 961.99998242a18.74999971 18.74999971 0 0 1-13.25976592-32.00976475l336.36327451-336.3632745a9.37499941 9.37499941 0 0 0-1e-8-13.25390625L537.66262271 206.50976299a18.74999971 18.74999971 0 0 1 26.51953096-26.51953096l373.86327392 373.86327393a46.93359287 46.93359287 0 0 1 0 66.29296728l-336.36327451 336.36327453A18.69140567 18.69140567 0 0 1 588.42238805 961.99998242z" p-id="1256"></path></svg>